<svg width="600" height="600" viewBox="0 0 600 600" xmlns="http://www.w3.org/2000/svg">
  <defs>
    <radialGradient id="bg" cx="40%" cy="30%" r="80%"><stop offset="0%" stop-color="#0D0D0D"/><stop offset="100%" stop-color="#060606"/></radialGradient>
    <linearGradient id="bottle" x1="0%" y1="0%" x2="100%" y2="0%"><stop offset="0%" stop-color="#1A1A1A"/><stop offset="40%" stop-color="#2A2A1A"/><stop offset="100%" stop-color="#111111"/></linearGradient>
  </defs>
  <rect width="600" height="600" fill="url(#bg)"/>
  <line x1="0" y1="430" x2="600" y2="430" stroke="#1A1A1A" stroke-width="1"/>
  <rect x="0" y="430" width="600" height="170" fill="#080808"/>
  <!-- Dropper bottle -->
  <rect x="265" y="180" width="70" height="220" rx="10" fill="url(#bottle)"/>
  <rect x="285" y="155" width="30" height="30" rx="4" fill="#1A1A1A"/>
  <rect x="293" y="135" width="14" height="25" rx="7" fill="#D4AF37" opacity="0.7"/>
  <!-- Gold liquid inside -->
  <rect x="270" y="320" width="60" height="75" rx="0" fill="#D4AF37" opacity="0.12"/>
  <!-- Label -->
  <rect x="272" y="215" width="56" height="100" rx="3" fill="#0A0A0A" opacity="0.9"/>
  <text x="300" y="240" text-anchor="middle" font-family="sans-serif" font-size="7" fill="#D4AF37" letter-spacing="3">IDBARBER</text>
  <line x1="278" y1="246" x2="322" y2="246" stroke="#D4AF37" stroke-width="0.5" opacity="0.4"/>
  <text x="300" y="260" text-anchor="middle" font-family="sans-serif" font-size="6" fill="#888" letter-spacing="1">BEARD OIL</text>
  <text x="300" y="273" text-anchor="middle" font-family="sans-serif" font-size="5" fill="#555">7 PREMIUM OILS</text>
  <!-- Shimmer -->
  <ellipse cx="278" cy="200" rx="8" ry="20" fill="#D4AF37" opacity="0.06"/>
  <!-- Shadow -->
  <ellipse cx="300" cy="428" rx="85" ry="10" fill="#000" opacity="0.6"/>
  <text x="300" y="480" text-anchor="middle" font-family="sans-serif" font-size="10" fill="#D4AF37" opacity="0.7" letter-spacing="3">ACEITE DE BARBA · 600 × 600 px</text>
  <text x="300" y="500" text-anchor="middle" font-family="sans-serif" font-size="9" fill="#555" letter-spacing="2">Frasco cuentagotas · mármol negro · hiperrealista</text>
  <rect x="20" y="20" width="24" height="2" fill="#D4AF37" opacity="0.4"/><rect x="20" y="20" width="2" height="24" fill="#D4AF37" opacity="0.4"/>
  <rect x="556" y="20" width="24" height="2" fill="#D4AF37" opacity="0.4"/><rect x="578" y="20" width="2" height="24" fill="#D4AF37" opacity="0.4"/>
  <rect x="20" y="578" width="24" height="2" fill="#D4AF37" opacity="0.4"/><rect x="20" y="556" width="2" height="24" fill="#D4AF37" opacity="0.4"/>
  <rect x="556" y="578" width="24" height="2" fill="#D4AF37" opacity="0.4"/><rect x="578" y="556" width="2" height="24" fill="#D4AF37" opacity="0.4"/>
</svg>
