<svg width="1200" height="800" viewBox="0 0 1200 800" xmlns="http://www.w3.org/2000/svg">
  <defs>
    <radialGradient id="bg" cx="50%" cy="40%" r="80%"><stop offset="0%" stop-color="#0E0E0E"/><stop offset="100%" stop-color="#060606"/></radialGradient>
    <radialGradient id="glow" cx="50%" cy="35%" r="55%"><stop offset="0%" stop-color="#D4AF37" stop-opacity="0.06"/><stop offset="100%" stop-color="#D4AF37" stop-opacity="0"/></radialGradient>
    <linearGradient id="surface" x1="0%" y1="0%" x2="0%" y2="100%"><stop offset="0%" stop-color="#111"/><stop offset="100%" stop-color="#090909"/></linearGradient>
  </defs>
  <rect width="1200" height="800" fill="url(#bg)"/>
  <rect width="1200" height="800" fill="url(#glow)"/>
  <!-- Marble surface -->
  <rect x="0" y="520" width="1200" height="280" fill="url(#surface)"/>
  <line x1="0" y1="520" x2="1200" y2="520" stroke="#222" stroke-width="1"/>
  <!-- Subtle marble veins -->
  <path d="M0,540 Q300,530 600,545 T1200,535" stroke="#1A1A1A" stroke-width="0.5" fill="none" opacity="0.6"/>
  <path d="M0,580 Q400,572 800,582 T1200,575" stroke="#1A1A1A" stroke-width="0.5" fill="none" opacity="0.4"/>
  <!-- Pomada jar -->
  <ellipse cx="220" cy="430" rx="80" ry="22" fill="#1A1A1A"/>
  <rect x="140" y="408" width="160" height="110" rx="8" fill="#141414"/>
  <ellipse cx="220" cy="408" rx="80" ry="22" fill="#222"/>
  <rect x="158" y="424" width="124" height="66" rx="3" fill="#0A0A0A" opacity="0.9"/>
  <text x="220" y="447" text-anchor="middle" font-family="sans-serif" font-size="7" fill="#D4AF37" letter-spacing="3">IDBARBER</text>
  <line x1="165" y1="452" x2="275" y2="452" stroke="#D4AF37" stroke-width="0.5" opacity="0.3"/>
  <text x="220" y="465" text-anchor="middle" font-family="sans-serif" font-size="6" fill="#888" letter-spacing="2">POMADA MATE</text>
  <ellipse cx="220" cy="518" rx="90" ry="9" fill="#000" opacity="0.5"/>
  <!-- Aceite dropper -->
  <rect x="380" y="290" width="55" height="210" rx="10" fill="#1A1A1A"/>
  <rect x="396" y="268" width="23" height="26" rx="3" fill="#1A1A1A"/>
  <rect x="403" y="248" width="9" height="24" rx="5" fill="#D4AF37" opacity="0.6"/>
  <rect x="386" y="360" width="43" height="80" rx="0" fill="#D4AF37" opacity="0.08"/>
  <text x="407" y="320" text-anchor="middle" font-family="sans-serif" font-size="6" fill="#D4AF37" letter-spacing="2">BEARD</text>
  <text x="407" y="333" text-anchor="middle" font-family="sans-serif" font-size="6" fill="#D4AF37" letter-spacing="2">OIL</text>
  <ellipse cx="407" cy="518" rx="38" ry="7" fill="#000" opacity="0.5"/>
  <!-- Shampoo (hero center) -->
  <rect x="510" y="220" width="180" height="300" rx="20" fill="#181818"/>
  <rect x="555" y="188" width="90" height="38" rx="8" fill="#1A1A1A"/>
  <rect x="588" y="162" width="24" height="30" rx="8" fill="#D4AF37" opacity="0.5"/>
  <rect x="556" y="198" width="88" height="12" rx="6" fill="#D4AF37" opacity="0.2"/>
  <rect x="520" y="300" width="160" height="120" rx="4" fill="#0A0A0A" opacity="0.9"/>
  <text x="600" y="330" text-anchor="middle" font-family="sans-serif" font-size="9" fill="#D4AF37" letter-spacing="4">IDBARBER</text>
  <line x1="528" y1="338" x2="672" y2="338" stroke="#D4AF37" stroke-width="0.5" opacity="0.3"/>
  <text x="600" y="356" text-anchor="middle" font-family="sans-serif" font-size="7" fill="#888" letter-spacing="2">SHAMPOO</text>
  <text x="600" y="372" text-anchor="middle" font-family="sans-serif" font-size="6" fill="#555">CHARCOAL · 250ml</text>
  <ellipse cx="600" cy="518" rx="110" ry="11" fill="#000" opacity="0.6"/>
  <!-- Pomada 2 (right side) -->
  <rect x="755" y="280" width="65" height="230" rx="12" fill="#141414"/>
  <rect x="773" y="258" width="29" height="26" rx="5" fill="#1A1A1A"/>
  <rect x="782" y="238" width="11" height="23" rx="5" fill="#D4AF37" opacity="0.5"/>
  <rect x="762" y="340" width="51" height="80" rx="3" fill="#0A0A0A" opacity="0.9"/>
  <text x="788" y="368" text-anchor="middle" font-family="sans-serif" font-size="6" fill="#D4AF37" letter-spacing="2">IDBARBER</text>
  <text x="788" y="382" text-anchor="middle" font-family="sans-serif" font-size="5" fill="#666">CERA</text>
  <ellipse cx="788" cy="518" rx="48" ry="7" fill="#000" opacity="0.5"/>
  <!-- Comb far right -->
  <rect x="890" y="310" width="16" height="200" rx="4" fill="#1A1A1A"/>
  <g fill="#222">
    <rect x="906" y="318" width="5" height="26" rx="2"/>
    <rect x="906" y="350" width="5" height="26" rx="2"/>
    <rect x="906" y="382" width="5" height="26" rx="2"/>
    <rect x="906" y="414" width="5" height="26" rx="2"/>
    <rect x="906" y="446" width="5" height="26" rx="2"/>
  </g>
  <ellipse cx="898" cy="518" rx="26" ry="6" fill="#000" opacity="0.4"/>
  <!-- Scattered scissors (detail) -->
  <g transform="translate(980,350) rotate(-20)" stroke="#D4AF37" stroke-width="1.5" fill="none" opacity="0.3">
    <line x1="0" y1="0" x2="50" y2="50"/><line x1="50" y1="0" x2="0" y2="50"/>
    <circle cx="-8" cy="56" r="10"/><circle cx="58" cy="56" r="10"/>
  </g>
  <!-- Gold dust particles -->
  <circle cx="460" cy="480" r="1.5" fill="#D4AF37" opacity="0.2"/>
  <circle cx="820" cy="460" r="1" fill="#D4AF37" opacity="0.15"/>
  <circle cx="1050" cy="490" r="2" fill="#D4AF37" opacity="0.1"/>
  <!-- Title text -->
  <text x="600" y="620" text-anchor="middle" font-family="sans-serif" font-size="12" fill="#D4AF37" opacity="0.6" letter-spacing="4">TIENDA IDBARBER · HERO 1200 × 800 px</text>
  <text x="600" y="645" text-anchor="middle" font-family="sans-serif" font-size="10" fill="#555" letter-spacing="2">Flat lay productos en mármol negro · luz dramática · hiperrealista</text>
  <!-- Corner marks -->
  <rect x="20" y="20" width="30" height="2" fill="#D4AF37" opacity="0.4"/><rect x="20" y="20" width="2" height="30" fill="#D4AF37" opacity="0.4"/>
  <rect x="1150" y="20" width="30" height="2" fill="#D4AF37" opacity="0.4"/><rect x="1178" y="20" width="2" height="30" fill="#D4AF37" opacity="0.4"/>
  <rect x="20" y="778" width="30" height="2" fill="#D4AF37" opacity="0.4"/><rect x="20" y="750" width="2" height="30" fill="#D4AF37" opacity="0.4"/>
  <rect x="1150" y="778" width="30" height="2" fill="#D4AF37" opacity="0.4"/><rect x="1178" y="750" width="2" height="30" fill="#D4AF37" opacity="0.4"/>
</svg>
