<svg width="1200" height="800" viewBox="0 0 1200 800" xmlns="http://www.w3.org/2000/svg">
  <defs>
    <radialGradient id="bg" cx="50%" cy="40%" r="80%"><stop offset="0%" stop-color="#0E0E0E"/><stop offset="100%" stop-color="#060606"/></radialGradient>
    <radialGradient id="glow" cx="50%" cy="50%" r="50%"><stop offset="0%" stop-color="#D4AF37" stop-opacity="0.07"/><stop offset="100%" stop-color="#D4AF37" stop-opacity="0"/></radialGradient>
  </defs>
  <rect width="1200" height="800" fill="url(#bg)"/>
  <rect width="1200" height="800" fill="url(#glow)"/>
  <line x1="0" y1="560" x2="1200" y2="560" stroke="#1A1A1A" stroke-width="1"/>
  <rect x="0" y="560" width="1200" height="240" fill="#070707"/>
  <!-- Jar (pomada) -->
  <ellipse cx="340" cy="380" rx="90" ry="26" fill="#1A1A1A"/>
  <rect x="250" y="358" width="180" height="120" rx="8" fill="#141414"/>
  <ellipse cx="340" cy="358" rx="90" ry="26" fill="#222"/>
  <rect x="270" y="375" width="140" height="70" rx="3" fill="#0A0A0A" opacity="0.8"/>
  <text x="340" y="400" text-anchor="middle" font-family="sans-serif" font-size="8" fill="#D4AF37" letter-spacing="3">IDBARBER</text>
  <text x="340" y="418" text-anchor="middle" font-family="sans-serif" font-size="6" fill="#666" letter-spacing="2">POMADA MATE</text>
  <ellipse cx="340" cy="558" rx="100" ry="10" fill="#000" opacity="0.5"/>
  <!-- Dropper bottle (aceite) -->
  <rect x="545" y="260" width="60" height="270" rx="10" fill="#1A1A1A"/>
  <rect x="563" y="238" width="24" height="26" rx="3" fill="#1A1A1A"/>
  <rect x="570" y="220" width="10" height="22" rx="5" fill="#D4AF37" opacity="0.7"/>
  <rect x="552" y="330" width="56" height="90" rx="0" fill="#D4AF37" opacity="0.1"/>
  <text x="575" y="300" text-anchor="middle" font-family="sans-serif" font-size="7" fill="#D4AF37" letter-spacing="2">BEARD</text>
  <text x="575" y="314" text-anchor="middle" font-family="sans-serif" font-size="7" fill="#D4AF37" letter-spacing="2">OIL</text>
  <ellipse cx="575" cy="558" rx="42" ry="7" fill="#000" opacity="0.5"/>
  <!-- Shampoo bottle -->
  <rect x="680" y="290" width="80" height="250" rx="12" fill="#141414"/>
  <rect x="700" y="272" width="40" height="22" rx="6" fill="#1A1A1A"/>
  <rect x="712" y="255" width="16" height="20" rx="4" fill="#D4AF37" opacity="0.5"/>
  <rect x="688" y="360" width="64" height="80" rx="3" fill="#0A0A0A" opacity="0.8"/>
  <text x="720" y="390" text-anchor="middle" font-family="sans-serif" font-size="7" fill="#D4AF37" letter-spacing="2">IDBARBER</text>
  <text x="720" y="406" text-anchor="middle" font-family="sans-serif" font-size="6" fill="#666" letter-spacing="1">SHAMPOO</text>
  <ellipse cx="720" cy="558" rx="52" ry="8" fill="#000" opacity="0.5"/>
  <!-- Comb -->
  <rect x="830" y="300" width="18" height="240" rx="4" fill="#1A1A1A"/>
  <g fill="#222">
    <rect x="848" y="310" width="6" height="30" rx="2"/><rect x="848" y="348" width="6" height="30" rx="2"/>
    <rect x="848" y="386" width="6" height="30" rx="2"/><rect x="848" y="424" width="6" height="30" rx="2"/>
    <rect x="848" y="462" width="6" height="30" rx="2"/>
  </g>
  <ellipse cx="839" cy="558" rx="28" ry="6" fill="#000" opacity="0.4"/>
  <!-- Box -->
  <rect x="140" y="200" width="920" height="360" rx="4" fill="none" stroke="#D4AF37" stroke-width="0.5" stroke-dasharray="8,6" opacity="0.15"/>
  <!-- Gift tag -->
  <rect x="490" y="170" width="220" height="50" rx="4" fill="#D4AF37" opacity="0.08" stroke="#D4AF37" stroke-width="0.5" opacity="0.3"/>
  <text x="600" y="198" text-anchor="middle" font-family="sans-serif" font-size="9" fill="#D4AF37" opacity="0.7" letter-spacing="3">KIT COMPLETO IDBARBER</text>
  <!-- Labels -->
  <text x="600" y="620" text-anchor="middle" font-family="sans-serif" font-size="11" fill="#D4AF37" opacity="0.7" letter-spacing="3">KIT COMPLETO · 1200 × 800 px</text>
  <text x="600" y="645" text-anchor="middle" font-family="sans-serif" font-size="10" fill="#555" letter-spacing="2">Flat lay productos en mármol negro · luz dura lateral · hiperrealista</text>
  <rect x="20" y="20" width="30" height="2" fill="#D4AF37" opacity="0.4"/><rect x="20" y="20" width="2" height="30" fill="#D4AF37" opacity="0.4"/>
  <rect x="1150" y="20" width="30" height="2" fill="#D4AF37" opacity="0.4"/><rect x="1178" y="20" width="2" height="30" fill="#D4AF37" opacity="0.4"/>
  <rect x="20" y="778" width="30" height="2" fill="#D4AF37" opacity="0.4"/><rect x="20" y="750" width="2" height="30" fill="#D4AF37" opacity="0.4"/>
  <rect x="1150" y="778" width="30" height="2" fill="#D4AF37" opacity="0.4"/><rect x="1178" y="750" width="2" height="30" fill="#D4AF37" opacity="0.4"/>
</svg>
