<svg width="600" height="600" viewBox="0 0 600 600" xmlns="http://www.w3.org/2000/svg">
  <defs>
    <radialGradient id="bg" cx="50%" cy="35%" r="75%"><stop offset="0%" stop-color="#0E0E0E"/><stop offset="100%" stop-color="#060606"/></radialGradient>
  </defs>
  <rect width="600" height="600" fill="url(#bg)"/>
  <line x1="0" y1="440" x2="600" y2="440" stroke="#1A1A1A" stroke-width="1"/>
  <rect x="0" y="440" width="600" height="160" fill="#080808"/>
  <!-- Comb handle -->
  <rect x="140" y="270" width="220" height="50" rx="10" fill="#1A1A1A"/>
  <!-- Comb spine -->
  <rect x="360" y="270" width="100" height="50" rx="6" fill="#181818"/>
  <!-- Teeth -->
  <g fill="#222222">
    <rect x="368" y="320" width="8" height="52" rx="3"/>
    <rect x="384" y="320" width="8" height="52" rx="3"/>
    <rect x="400" y="320" width="8" height="52" rx="3"/>
    <rect x="416" y="320" width="8" height="52" rx="3"/>
    <rect x="432" y="320" width="8" height="52" rx="3"/>
    <rect x="448" y="320" width="8" height="52" rx="3"/>
  </g>
  <!-- Fine teeth -->
  <g fill="#1E1E1E">
    <rect x="368" y="248" width="4" height="22" rx="2"/>
    <rect x="378" y="248" width="4" height="22" rx="2"/>
    <rect x="388" y="248" width="4" height="22" rx="2"/>
    <rect x="398" y="248" width="4" height="22" rx="2"/>
    <rect x="408" y="248" width="4" height="22" rx="2"/>
    <rect x="418" y="248" width="4" height="22" rx="2"/>
    <rect x="428" y="248" width="4" height="22" rx="2"/>
    <rect x="438" y="248" width="4" height="22" rx="2"/>
    <rect x="448" y="248" width="4" height="22" rx="2"/>
    <rect x="458" y="248" width="4" height="22" rx="2"/>
  </g>
  <!-- Logo on handle -->
  <text x="250" y="302" text-anchor="middle" font-family="sans-serif" font-size="8" fill="#D4AF37" opacity="0.6" letter-spacing="3">IDBARBER</text>
  <!-- Gold accent line on handle -->
  <line x1="150" y1="295" x2="340" y2="295" stroke="#D4AF37" stroke-width="0.5" opacity="0.3"/>
  <!-- Shadow -->
  <ellipse cx="300" cy="438" rx="200" ry="10" fill="#000" opacity="0.5"/>
  <text x="300" y="490" text-anchor="middle" font-family="sans-serif" font-size="10" fill="#D4AF37" opacity="0.7" letter-spacing="3">PEINE PROFESIONAL · 600 × 600 px</text>
  <text x="300" y="510" text-anchor="middle" font-family="sans-serif" font-size="9" fill="#555" letter-spacing="2">Peine carbono · superficie reflectante · hiperrealista</text>
  <rect x="20" y="20" width="24" height="2" fill="#D4AF37" opacity="0.4"/><rect x="20" y="20" width="2" height="24" fill="#D4AF37" opacity="0.4"/>
  <rect x="556" y="20" width="24" height="2" fill="#D4AF37" opacity="0.4"/><rect x="578" y="20" width="2" height="24" fill="#D4AF37" opacity="0.4"/>
  <rect x="20" y="578" width="24" height="2" fill="#D4AF37" opacity="0.4"/><rect x="20" y="556" width="2" height="24" fill="#D4AF37" opacity="0.4"/>
  <rect x="556" y="578" width="24" height="2" fill="#D4AF37" opacity="0.4"/><rect x="578" y="556" width="2" height="24" fill="#D4AF37" opacity="0.4"/>
</svg>
