<svg width="600" height="600" viewBox="0 0 600 600" xmlns="http://www.w3.org/2000/svg">
  <defs>
    <radialGradient id="bg" cx="40%" cy="30%" r="80%"><stop offset="0%" stop-color="#0D0D0D"/><stop offset="100%" stop-color="#060606"/></radialGradient>
    <linearGradient id="bottle" x1="0%" y1="0%" x2="100%" y2="0%"><stop offset="0%" stop-color="#181818"/><stop offset="50%" stop-color="#232323"/><stop offset="100%" stop-color="#111"/></linearGradient>
  </defs>
  <rect width="600" height="600" fill="url(#bg)"/>
  <line x1="0" y1="430" x2="600" y2="430" stroke="#1A1A1A" stroke-width="1"/>
  <rect x="0" y="430" width="600" height="170" fill="#080808"/>
  <!-- Shampoo bottle body -->
  <rect x="240" y="180" width="120" height="230" rx="16" fill="url(#bottle)"/>
  <!-- Pump top -->
  <rect x="280" y="150" width="40" height="34" rx="6" fill="#1A1A1A"/>
  <rect x="295" y="128" width="10" height="26" rx="5" fill="#D4AF37" opacity="0.6"/>
  <rect x="282" y="144" width="36" height="8" rx="4" fill="#D4AF37" opacity="0.3"/>
  <!-- Label area -->
  <rect x="248" y="230" width="104" height="110" rx="4" fill="#0A0A0A" opacity="0.9"/>
  <text x="300" y="258" text-anchor="middle" font-family="sans-serif" font-size="8" fill="#D4AF37" letter-spacing="3">IDBARBER</text>
  <line x1="258" y1="264" x2="342" y2="264" stroke="#D4AF37" stroke-width="0.5" opacity="0.4"/>
  <text x="300" y="280" text-anchor="middle" font-family="sans-serif" font-size="7" fill="#888" letter-spacing="2">SHAMPOO</text>
  <text x="300" y="295" text-anchor="middle" font-family="sans-serif" font-size="5.5" fill="#555" letter-spacing="1">CHARCOAL + ARGAN OIL</text>
  <text x="300" y="310" text-anchor="middle" font-family="sans-serif" font-size="5" fill="#444">250 ml</text>
  <!-- Highlight -->
  <ellipse cx="258" cy="210" rx="10" ry="28" fill="#fff" opacity="0.04"/>
  <!-- Shadow -->
  <ellipse cx="300" cy="428" rx="90" ry="10" fill="#000" opacity="0.6"/>
  <text x="300" y="480" text-anchor="middle" font-family="sans-serif" font-size="10" fill="#D4AF37" opacity="0.7" letter-spacing="3">SHAMPOO CARBÓN · 600 × 600 px</text>
  <text x="300" y="500" text-anchor="middle" font-family="sans-serif" font-size="9" fill="#555" letter-spacing="2">Botella pump · mármol negro · hiperrealista</text>
  <rect x="20" y="20" width="24" height="2" fill="#D4AF37" opacity="0.4"/><rect x="20" y="20" width="2" height="24" fill="#D4AF37" opacity="0.4"/>
  <rect x="556" y="20" width="24" height="2" fill="#D4AF37" opacity="0.4"/><rect x="578" y="20" width="2" height="24" fill="#D4AF37" opacity="0.4"/>
  <rect x="20" y="578" width="24" height="2" fill="#D4AF37" opacity="0.4"/><rect x="20" y="556" width="2" height="24" fill="#D4AF37" opacity="0.4"/>
  <rect x="556" y="578" width="24" height="2" fill="#D4AF37" opacity="0.4"/><rect x="578" y="556" width="2" height="24" fill="#D4AF37" opacity="0.4"/>
</svg>
