<svg width="1200" height="630" viewBox="0 0 1200 630" xmlns="http://www.w3.org/2000/svg">
  <defs>
    <radialGradient id="bg" cx="50%" cy="40%" r="85%"><stop offset="0%" stop-color="#0F0F0F"/><stop offset="100%" stop-color="#050505"/></radialGradient>
    <radialGradient id="glow" cx="50%" cy="50%" r="55%"><stop offset="0%" stop-color="#D4AF37" stop-opacity="0.1"/><stop offset="100%" stop-color="#D4AF37" stop-opacity="0"/></radialGradient>
  </defs>
  <rect width="1200" height="630" fill="url(#bg)"/>
  <rect width="1200" height="630" fill="url(#glow)"/>
  <!-- Decorative lines -->
  <line x1="0" y1="140" x2="1200" y2="140" stroke="#D4AF37" stroke-width="0.5" opacity="0.15"/>
  <line x1="0" y1="490" x2="1200" y2="490" stroke="#D4AF37" stroke-width="0.5" opacity="0.15"/>
  <line x1="320" y1="0" x2="320" y2="630" stroke="#D4AF37" stroke-width="0.5" opacity="0.1"/>
  <line x1="880" y1="0" x2="880" y2="630" stroke="#D4AF37" stroke-width="0.5" opacity="0.1"/>
  <!-- Logo area -->
  <!-- Scissors icon -->
  <g transform="translate(570,140) rotate(-15)" stroke="#D4AF37" stroke-width="3" fill="none" opacity="0.6">
    <line x1="0" y1="0" x2="60" y2="60"/><line x1="60" y1="0" x2="0" y2="60"/>
    <circle cx="-10" cy="68" r="12"/><circle cx="70" cy="68" r="12"/>
  </g>
  <!-- IDBARBER large text -->
  <text x="600" y="310" text-anchor="middle" font-family="Georgia, serif" font-size="88" fill="#D4AF37" letter-spacing="12" font-weight="bold" opacity="0.95">IDBARBER</text>
  <!-- Tagline -->
  <text x="600" y="370" text-anchor="middle" font-family="sans-serif" font-size="16" fill="#888" letter-spacing="8">BARBERÍA PREMIUM · BOGOTÁ</text>
  <!-- Separator -->
  <rect x="480" y="390" width="240" height="1" fill="#D4AF37" opacity="0.3"/>
  <!-- Sub tagline -->
  <text x="600" y="425" text-anchor="middle" font-family="sans-serif" font-size="13" fill="#555" letter-spacing="4">CORTES · CITAS · TIENDA</text>
  <!-- Corner decorations -->
  <rect x="40" y="40" width="50" height="2" fill="#D4AF37" opacity="0.4"/>
  <rect x="40" y="40" width="2" height="50" fill="#D4AF37" opacity="0.4"/>
  <rect x="1110" y="40" width="50" height="2" fill="#D4AF37" opacity="0.4"/>
  <rect x="1158" y="40" width="2" height="50" fill="#D4AF37" opacity="0.4"/>
  <rect x="40" y="588" width="50" height="2" fill="#D4AF37" opacity="0.4"/>
  <rect x="40" y="540" width="2" height="50" fill="#D4AF37" opacity="0.4"/>
  <rect x="1110" y="588" width="50" height="2" fill="#D4AF37" opacity="0.4"/>
  <rect x="1158" y="540" width="2" height="50" fill="#D4AF37" opacity="0.4"/>
  <!-- OG label (for reference only) -->
  <text x="600" y="610" text-anchor="middle" font-family="sans-serif" font-size="9" fill="#333" letter-spacing="3">OG IMAGE · 1200 × 630 px · SOCIAL SHARE</text>
</svg>
