<svg width="800" height="1000" viewBox="0 0 800 1000" xmlns="http://www.w3.org/2000/svg">
  <defs>
    <radialGradient id="bg" cx="60%" cy="30%" r="80%">
      <stop offset="0%" stop-color="#0A1220"/>
      <stop offset="100%" stop-color="#0A0A0A"/>
    </radialGradient>
    <radialGradient id="glow" cx="60%" cy="30%" r="40%">
      <stop offset="0%" stop-color="#3A6FD4" stop-opacity="0.08"/>
      <stop offset="100%" stop-color="#D4AF37" stop-opacity="0"/>
    </radialGradient>
  </defs>
  <rect width="800" height="1000" fill="url(#bg)"/>
  <rect width="800" height="1000" fill="url(#glow)"/>
  <ellipse cx="400" cy="260" rx="85" ry="95" fill="#1A1A1A"/>
  <rect x="275" y="345" width="250" height="375" rx="18" fill="#111111"/>
  <rect x="275" y="345" width="250" height="4" fill="#D4AF37" opacity="0.5"/>
  <text x="400" y="820" text-anchor="middle" font-family="sans-serif" font-size="11" fill="#D4AF37" opacity="0.7" letter-spacing="3">ANDRÉS GARCÍA · SENIOR BARBER</text>
  <text x="400" y="845" text-anchor="middle" font-family="sans-serif" font-size="10" fill="#555" letter-spacing="2">800 × 1000 px · Retrato hiperrealista</text>
  <rect x="20" y="20" width="30" height="2" fill="#D4AF37" opacity="0.5"/><rect x="20" y="20" width="2" height="30" fill="#D4AF37" opacity="0.5"/>
  <rect x="750" y="20" width="30" height="2" fill="#D4AF37" opacity="0.5"/><rect x="778" y="20" width="2" height="30" fill="#D4AF37" opacity="0.5"/>
  <rect x="20" y="978" width="30" height="2" fill="#D4AF37" opacity="0.5"/><rect x="20" y="950" width="2" height="30" fill="#D4AF37" opacity="0.5"/>
  <rect x="750" y="978" width="30" height="2" fill="#D4AF37" opacity="0.5"/><rect x="778" y="950" width="2" height="30" fill="#D4AF37" opacity="0.5"/>
</svg>
