<svg width="600" height="600" viewBox="0 0 600 600" xmlns="http://www.w3.org/2000/svg">
  <defs><radialGradient id="bg" cx="50%" cy="40%" r="70%"><stop offset="0%" stop-color="#0A100A"/><stop offset="100%" stop-color="#0A0A0A"/></radialGradient></defs>
  <rect width="600" height="600" fill="url(#bg)"/>
  <ellipse cx="300" cy="220" rx="100" ry="110" fill="#1A1A1A"/>
  <rect x="220" y="320" width="160" height="180" rx="12" fill="#111111"/>
  <!-- Scissors -->
  <g transform="translate(340,160)" stroke="#D4AF37" stroke-width="2.5" fill="none" opacity="0.7">
    <line x1="0" y1="0" x2="40" y2="40"/><line x1="40" y1="0" x2="0" y2="40"/>
    <circle cx="-6" cy="46" r="8"/><circle cx="46" cy="46" r="8"/>
  </g>
  <text x="300" y="500" text-anchor="middle" font-family="sans-serif" font-size="10" fill="#D4AF37" opacity="0.7" letter-spacing="3">CORTE CLÁSICO · 600 × 600 px</text>
  <text x="300" y="520" text-anchor="middle" font-family="sans-serif" font-size="9" fill="#555" letter-spacing="2">Barbero + cliente · barbería clásica · hiperrealista</text>
  <rect x="20" y="20" width="24" height="2" fill="#D4AF37" opacity="0.4"/><rect x="20" y="20" width="2" height="24" fill="#D4AF37" opacity="0.4"/>
  <rect x="556" y="20" width="24" height="2" fill="#D4AF37" opacity="0.4"/><rect x="578" y="20" width="2" height="24" fill="#D4AF37" opacity="0.4"/>
  <rect x="20" y="578" width="24" height="2" fill="#D4AF37" opacity="0.4"/><rect x="20" y="556" width="2" height="24" fill="#D4AF37" opacity="0.4"/>
  <rect x="556" y="578" width="24" height="2" fill="#D4AF37" opacity="0.4"/><rect x="578" y="556" width="2" height="24" fill="#D4AF37" opacity="0.4"/>
</svg>
