<svg width="600" height="600" viewBox="0 0 600 600" xmlns="http://www.w3.org/2000/svg">
  <defs>
    <radialGradient id="bg" cx="50%" cy="40%" r="70%"><stop offset="0%" stop-color="#1A1200"/><stop offset="100%" stop-color="#0A0A0A"/></radialGradient>
    <linearGradient id="fade-grad" x1="0%" y1="0%" x2="0%" y2="100%"><stop offset="0%" stop-color="#D4AF37" stop-opacity="0.9"/><stop offset="100%" stop-color="#D4AF37" stop-opacity="0.1"/></linearGradient>
  </defs>
  <rect width="600" height="600" fill="url(#bg)"/>
  <!-- Fade gradient visual -->
  <rect x="200" y="80" width="200" height="340" rx="100" fill="#1A1A1A"/>
  <rect x="200" y="300" width="200" height="120" rx="0" fill="url(#fade-grad)" opacity="0.15"/>
  <!-- Clippers -->
  <rect x="310" y="240" width="8" height="120" rx="4" fill="#D4AF37" opacity="0.7"/>
  <rect x="300" y="230" width="28" height="18" rx="3" fill="#888" opacity="0.6"/>
  <text x="300" y="500" text-anchor="middle" font-family="sans-serif" font-size="10" fill="#D4AF37" opacity="0.7" letter-spacing="3">FADE PREMIUM · 600 × 600 px</text>
  <text x="300" y="520" text-anchor="middle" font-family="sans-serif" font-size="9" fill="#555" letter-spacing="2">Macro de degradado perfecto · hiperrealista</text>
  <rect x="20" y="20" width="24" height="2" fill="#D4AF37" opacity="0.4"/><rect x="20" y="20" width="2" height="24" fill="#D4AF37" opacity="0.4"/>
  <rect x="556" y="20" width="24" height="2" fill="#D4AF37" opacity="0.4"/><rect x="578" y="20" width="2" height="24" fill="#D4AF37" opacity="0.4"/>
  <rect x="20" y="578" width="24" height="2" fill="#D4AF37" opacity="0.4"/><rect x="20" y="556" width="2" height="24" fill="#D4AF37" opacity="0.4"/>
  <rect x="556" y="578" width="24" height="2" fill="#D4AF37" opacity="0.4"/><rect x="578" y="556" width="2" height="24" fill="#D4AF37" opacity="0.4"/>
</svg>
