<svg width="600" height="600" viewBox="0 0 600 600" xmlns="http://www.w3.org/2000/svg">
  <defs>
    <radialGradient id="bg" cx="50%" cy="40%" r="70%"><stop offset="0%" stop-color="#1A1200"/><stop offset="100%" stop-color="#0A0A0A"/></radialGradient>
    <radialGradient id="glow" cx="50%" cy="40%" r="50%"><stop offset="0%" stop-color="#D4AF37" stop-opacity="0.15"/><stop offset="100%" stop-color="#D4AF37" stop-opacity="0"/></radialGradient>
  </defs>
  <rect width="600" height="600" fill="url(#bg)"/>
  <rect width="600" height="600" fill="url(#glow)"/>
  <!-- Crown -->
  <polygon points="300,120 340,200 380,150 360,240 240,240 220,150 260,200" fill="none" stroke="#D4AF37" stroke-width="2" opacity="0.7"/>
  <circle cx="300" cy="120" r="8" fill="#D4AF37" opacity="0.8"/>
  <circle cx="380" cy="150" r="6" fill="#D4AF37" opacity="0.6"/>
  <circle cx="220" cy="150" r="6" fill="#D4AF37" opacity="0.6"/>
  <!-- Chair silhouette -->
  <rect x="220" y="280" width="160" height="180" rx="20" fill="#111111"/>
  <rect x="200" y="420" width="200" height="20" rx="4" fill="#1A1A1A"/>
  <rect x="225" y="440" width="12" height="60" rx="4" fill="#1A1A1A"/>
  <rect x="363" y="440" width="12" height="60" rx="4" fill="#1A1A1A"/>
  <text x="300" y="530" text-anchor="middle" font-family="sans-serif" font-size="10" fill="#D4AF37" opacity="0.8" letter-spacing="3">EXPERIENCIA VIP · 600 × 600 px</text>
  <text x="300" y="550" text-anchor="middle" font-family="sans-serif" font-size="9" fill="#555" letter-spacing="2">Interior lujoso · silla de cuero · hiperrealista</text>
  <rect x="20" y="20" width="24" height="2" fill="#D4AF37" opacity="0.4"/><rect x="20" y="20" width="2" height="24" fill="#D4AF37" opacity="0.4"/>
  <rect x="556" y="20" width="24" height="2" fill="#D4AF37" opacity="0.4"/><rect x="578" y="20" width="2" height="24" fill="#D4AF37" opacity="0.4"/>
  <rect x="20" y="578" width="24" height="2" fill="#D4AF37" opacity="0.4"/><rect x="20" y="556" width="2" height="24" fill="#D4AF37" opacity="0.4"/>
  <rect x="556" y="578" width="24" height="2" fill="#D4AF37" opacity="0.4"/><rect x="578" y="556" width="2" height="24" fill="#D4AF37" opacity="0.4"/>
</svg>
